<svg viewBox="0 0 100 100" xmlns="http://www.w3.org/2000/svg">
  <defs>
    <mask id="ai-mask">
      <rect width="100" height="100" fill="white" />
      
      <!-- Eyes -->
      <circle cx="35" cy="55" r="7" fill="black" />
      <circle cx="65" cy="55" r="7" fill="black" />
      
      <!-- Mouth -->
      <path d="M 30 70 Q 50 85 70 70" fill="none" stroke="black" stroke-width="8" stroke-linecap="round" />
      
      <!-- Teeth separators -->
      <line x1="40" y1="70" x2="40" y2="80" stroke="black" stroke-width="3" />
      <line x1="50" y1="70" x2="50" y2="80" stroke="black" stroke-width="3" />
      <line x1="60" y1="70" x2="60" y2="80" stroke="black" stroke-width="3" />
      
      <!-- Brain Gears -->
      <!-- Gear Center Cutout -->
      <circle cx="50" cy="28" r="8" fill="black" />
      <circle cx="50" cy="28" r="4" fill="white" />
      
      <!-- Gear Slots -->
      <path d="M 47 12 L 53 12 L 53 20 L 47 20 Z" fill="black" />
      <path d="M 47 36 L 53 36 L 53 44 L 47 44 Z" fill="black" />
      <path d="M 30 25 L 30 31 L 38 31 L 38 25 Z" fill="black" />
      <path d="M 62 25 L 62 31 L 70 31 L 70 25 Z" fill="black" />
    </mask>
  </defs>

  <path fill="#f5a623" mask="url(#ai-mask)" d="M50 5 C20 5 15 25 15 45 C15 70 25 80 35 85 C40 88 45 90 50 90 C55 90 60 88 65 85 C75 80 85 70 85 45 C85 25 80 5 50 5 Z" />
</svg>
